# xmcd
#
# Track frame offsets: 
#        150
#        16001
#        37261
#        56415
#        77623
#        96859
#        116637
#        136445
#        157036
#        177716
#        202372
#        220981
#        245459
#
# Disc length: 3513 seconds
#
# Revision: 0
# Processed by: cddbd v1.5.2PL0 Copyright (c) Steve Scherf et al.
# Submitted via: ExactAudioCopy v1.0b3
#
DISCID=bf0db70d
DTITLE=群星 - DTS ES 正品 2010纯发烧女人
DYEAR=2009
DGENRE=DTS 5.1
TTITLE0=别再说
TTITLE1=传奇
TTITLE2=珍惜
TTITLE3=难道
TTITLE4=不让眼泪流进记忆
TTITLE5=围城
TTITLE6=爱你真的好难
TTITLE7=让我再抱你一回
TTITLE8=依恋
TTITLE9=你的泪会说谎
TTITLE10=我爱你没关系
TTITLE11=停不了的爱
TTITLE12=来生是否还能把你手牵
EXTD=
EXTT0=
EXTT1=
EXTT2=
EXTT3=
EXTT4=
EXTT5=
EXTT6=
EXTT7=
EXTT8=
EXTT9=
EXTT10=
EXTT11=
EXTT12=
PLAYORDER=
